<svg xmlns="http://www.w3.org/2000/svg" xmlns:xlink="http://www.w3.org/1999/xlink" width="500" zoomAndPan="magnify" viewBox="0 0 375 374.999991" height="500" preserveAspectRatio="xMidYMid meet" version="1.0"><path fill="#8c52ff" d="M 290.472656 44.050781 C 314.378906 59.675781 328.875 89.605469 335.652344 118.972656 C 342.429688 148.152344 341.488281 176.765625 336.96875 204.441406 C 332.640625 232.300781 324.921875 259.222656 309.296875 282.5625 C 293.671875 305.90625 270.519531 325.671875 243.035156 336.027344 C 215.359375 346.570312 183.734375 347.699219 156.625 337.722656 C 129.707031 327.554688 107.304688 306.285156 86.785156 282.941406 C 66.265625 259.785156 47.441406 234.75 40.101562 205.945312 C 32.570312 177.144531 36.335938 144.578125 49.511719 116.527344 C 62.691406 88.476562 85.28125 64.945312 112.011719 50.640625 C 138.554688 36.332031 169.425781 31.25 201.429688 29.367188 C 233.433594 27.296875 266.566406 28.613281 290.472656 44.050781 Z M 290.472656 44.050781 " fill-opacity="1" fill-rule="nonzero"/></svg>